<svg width="95.7" height="95.7" xmlns="http://www.w3.org/2000/svg" xml:space="preserve" version="1.1">

 <g>
  <title>Layer 1</title>
  <path id="svg_1" enable-background="new" fill="#ff7f00" d="m25.8,85.2l-15.3,-15.3c-12.2,-12.2 -12.2,-31.9 0,-44l15.3,-15.3c12.2,-12.2 31.9,-12.2 44,0l15.3,15.3c12.2,12.2 12.2,31.9 0,44l-15.2,15.3c-12.2,12.2 -31.9,12.2 -44.1,0z" class="st0"/>
  <g id="svg_2">
   <path id="svg_3" fill="#FFFFFF" d="m47.9,69.3c-10.7,0 -19.4,-8.7 -19.4,-19.4c0,-0.5 -0.2,-13.6 11.2,-19.2c0.6,-0.2 1.3,0 1.8,0.5s0.5,1.1 0.2,1.8l0,0c0,0 -0.5,1.1 -0.5,3.7c0,1.6 1.3,3 3,3s3,-1.3 3,-3c0,-3.8 -2.9,-7.5 -2.9,-7.7c-0.3,-0.5 -0.3,-1.1 -0.2,-1.6c0.3,-0.5 0.8,-0.8 1.4,-0.8c3.8,0.2 10.7,2.4 12.3,9l1.1,-1.4c0.3,-0.3 0.6,-0.5 1.1,-0.5l0,0c0.5,0 0.8,0.2 1.1,0.5c5.5,6.3 5.8,13.6 5.8,15.7l0,0l0,0c0.3,10.7 -8.4,19.4 -19,19.4zm-9.7,-34c-6.7,5.1 -6.6,14.3 -6.6,14.6c0,9 7.4,16.4 16.4,16.4s16.4,-7.4 16.4,-16.4l0,0l0,-0.2c0,-1.6 -0.2,-7.2 -4,-12.3l-2.4,2.6c-0.5,0.5 -1.1,0.6 -1.8,0.5c-0.6,-0.3 -1,-0.8 -1,-1.4c0.3,-5.6 -3.7,-8 -6.6,-8.8c0.8,1.8 1.6,4 1.6,6.4c0,3.4 -2.7,5.9 -5.9,5.9s-6.1,-2.7 -6.1,-5.9c0,-0.6 0,-1.1 0,-1.4z" class="st1"/>
  </g>
 </g>
</svg>