<svg width="95.7" height="95.7" xmlns="http://www.w3.org/2000/svg" xml:space="preserve" version="1.1">

 <g>
  <title>Layer 1</title>
  <path id="svg_1" enable-background="new" fill="#ff7f00" d="m25.8,85.1l-15.3,-15.3c-12.2,-12.2 -12.2,-31.9 0,-44l15.3,-15.3c12.2,-12.2 31.9,-12.2 44,0l15.3,15.3c12.2,12.2 12.2,31.9 0,44l-15.2,15.3c-12.2,12.2 -31.9,12.2 -44.1,0z" class="st0"/>
  <g id="svg_2">
   <path id="svg_3" fill="#FFFFFF" d="m48.7,47.2c5.1,0 9.4,-4.2 9.4,-9.4s-4.2,-9.4 -9.4,-9.4s-9.4,4.2 -9.4,9.4s4.3,9.4 9.4,9.4zm0,-16c3.7,0 6.6,2.9 6.6,6.6c0,3.7 -2.9,6.6 -6.6,6.6c-3.7,0 -6.6,-2.9 -6.6,-6.6c0,-3.6 2.9,-6.6 6.6,-6.6z" class="st1"/>
   <path id="svg_4" fill="#FFFFFF" d="m64.9,61.5c-2.6,-6.6 -8.9,-10.8 -16.1,-10.8s-13.5,4.2 -16.1,10.8c-0.4,1.3 -0.3,2.8 0.4,4c0.7,1.2 2,1.8 3.4,1.8l24.6,0c1.3,0 2.6,-0.7 3.4,-1.8c0.7,-1.2 0.9,-2.7 0.4,-4zm-2.7,2.4c-0.3,0.4 -0.7,0.6 -1.2,0.6l-24.6,0c-0.4,0 -0.9,-0.3 -1.2,-0.6c-0.3,-0.4 -0.3,-0.9 -0.1,-1.3c2.2,-5.6 7.6,-9.2 13.6,-9.2s11.4,3.7 13.6,9.1c0.3,0.5 0.2,1.1 -0.1,1.4z" class="st1"/>
  </g>
 </g>
</svg>